<?xml version="1.0" encoding="utf-8"?>
<!-- Generator: Adobe Illustrator 24.0.1, SVG Export Plug-In . SVG Version: 6.00 Build 0)  -->
<svg version="1.1" id="Слой_1" xmlns="http://www.w3.org/2000/svg" xmlns:xlink="http://www.w3.org/1999/xlink" x="0px" y="0px"
	 viewBox="0 0 120 117" style="enable-background:new 0 0 120 117;" xml:space="preserve">
<g>
	<path d="M95.8,20.5C85.7,10.4,72.3,4.9,58.1,4.8C28.8,4.8,4.9,28.7,4.9,58.1c0,29.4,23.9,53.2,53.2,53.2
		c29.4,0,53.2-23.9,53.2-53.3C111.4,43.9,105.8,30.5,95.8,20.5z M101.2,58.1c0,23.7-19.4,43.1-43.1,43.1C34.4,101.2,15,81.9,15,58.1
		C15,34.3,34.4,15,58.1,15S101.2,34.3,101.2,58.1z"/>
	<path d="M80.1,63.3L66,60.8c-1.1-0.2-2.2,0.4-2.7,1.3l-3,5.8l-0.2-0.1c-5-2.5-9.2-6.6-11.7-11.7l-0.1-0.2l5.8-3
		c1-0.5,1.5-1.6,1.3-2.7l-2.5-14.1c-0.1-0.7-0.5-1.3-1.1-1.6c-2.1-1.4-4.5-2.1-7-2.1c-2,0-4.1,0.5-5.9,1.5c-4.1,2.2-6.6,6.4-6.6,11
		c0,10.4,4.1,20.2,11.5,27.6c7.4,7.4,17.2,11.4,27.6,11.5c4.6,0,8.9-2.5,11-6.6c2.2-4.1,1.9-9-0.7-12.8
		C81.4,63.8,80.8,63.4,80.1,63.3z"/>
</g>
</svg>
