<?xml version="1.0" standalone="no"?>
<!DOCTYPE svg PUBLIC "-//W3C//DTD SVG 20010904//EN"
 "http://www.w3.org/TR/2001/REC-SVG-20010904/DTD/svg10.dtd">
<svg version="1.0" xmlns="http://www.w3.org/2000/svg"
 width="2084.000000pt" height="2084.000000pt" viewBox="0 0 2084.000000 2084.000000"
 preserveAspectRatio="xMidYMid meet">
<metadata>
Created by potrace 1.11, written by Peter Selinger 2001-2013
</metadata>
<g transform="translate(0.000000,2084.000000) scale(0.100000,-0.100000)"
fill="#000000" stroke="none">
<path d="M0 10420 l0 -10420 10420 0 10420 0 0 10420 0 10420 -10420 0 -10420
0 0 -10420z m7088 5831 c411 -62 808 -228 1142 -477 129 -97 346 -306 451
-437 295 -366 468 -763 540 -1242 40 -261 27 -636 -32 -930 -156 -780 -636
-1434 -1384 -1885 -539 -324 -1234 -546 -1995 -636 -184 -22 -650 -30 -848
-15 -1694 129 -3202 1113 -4005 2613 -100 185 -135 325 -124 491 8 119 37 219
95 332 37 73 64 108 142 186 84 84 107 102 200 147 147 73 207 87 370 87 111
0 149 -4 215 -23 164 -48 336 -164 429 -291 20 -26 67 -106 106 -176 302 -545
712 -971 1240 -1287 518 -311 1078 -468 1666 -468 227 0 341 9 561 46 796 131
1400 462 1637 895 49 90 91 208 112 315 24 120 24 353 1 448 -84 340 -334 597
-669 688 -69 19 -108 22 -228 22 -165 -1 -250 -18 -378 -79 -268 -127 -429
-327 -517 -645 -4 -14 -11 -142 -15 -285 -9 -301 -20 -358 -97 -508 -39 -76
-64 -109 -147 -192 -87 -86 -115 -108 -196 -148 -130 -65 -227 -88 -365 -89
-142 0 -233 20 -360 82 -171 83 -294 206 -375 374 -72 150 -75 173 -75 516 0
242 4 329 18 420 69 445 227 823 491 1175 101 135 318 357 444 455 390 305
848 489 1337 539 139 15 459 5 613 -18z m10512 -1269 c125 -41 207 -90 303
-182 128 -121 199 -241 237 -405 20 -82 20 -116 17 -2687 -3 -2803 0 -2614
-52 -2918 -26 -156 -91 -404 -149 -575 -280 -824 -814 -1517 -1541 -2000 -207
-137 -399 -243 -604 -330 -939 -403 -1960 -429 -2918 -75 -182 67 -545 248
-709 353 -164 105 -330 228 -465 345 -130 112 -360 347 -464 472 -43 52 -82
95 -86 95 -3 0 -36 -36 -71 -80 -471 -580 -1133 -1029 -1854 -1254 -399 -125
-732 -175 -1164 -175 -286 0 -454 15 -700 60 -930 172 -1754 665 -2350 1408
-480 598 -770 1325 -840 2106 -5 63 -10 335 -10 604 l0 489 32 -6 c18 -3 94
-17 168 -30 436 -81 956 -100 1367 -51 l51 6 5 -458 c4 -492 9 -550 63 -773
39 -159 88 -291 169 -456 336 -689 998 -1164 1754 -1260 170 -22 515 -17 661
10 241 43 434 107 644 211 588 293 1029 836 1190 1464 73 287 70 215 76 1615
l6 1260 22 73 c110 359 420 592 787 592 221 0 427 -90 582 -254 87 -91 142
-182 185 -306 l33 -95 6 -1265 c6 -1350 4 -1316 55 -1540 169 -751 714 -1374
1437 -1644 111 -42 278 -86 417 -111 146 -27 491 -32 661 -10 855 108 1588
707 1867 1525 42 123 73 244 99 392 15 84 17 334 22 2658 6 2419 7 2568 24
2624 76 253 216 426 432 533 130 65 217 83 380 79 113 -3 142 -7 225 -34z"/>
</g>
</svg>
